<svg width="80" height="76" viewBox="0 0 80 76" fill="none" xmlns="http://www.w3.org/2000/svg">
<path d="M2.90399 75.9276C3.59607 75.7603 3.97673 75.2054 4.46366 74.7657C6.53992 72.8929 8.58776 70.994 10.91 69.406C12.5413 68.2912 14.0256 66.9634 15.6124 65.7805C18.9765 63.2747 22.3479 60.7788 25.7478 58.3225C27.8488 56.8051 30.0659 55.4451 32.1261 53.8757C34.4224 52.1267 36.9028 50.68 39.3214 49.1279C39.7366 48.8616 39.8268 48.8975 40.0073 49.3509C40.3101 50.1102 40.6203 50.867 40.9218 51.6263C41.9711 54.2721 43.0623 56.903 44.0486 59.5723C44.7221 61.3981 45.2424 63.2809 45.8393 65.1351C46.0803 65.882 46.2719 66.655 46.6068 67.3598C47.9774 70.2421 51.1103 71.5625 54.0381 70.3982C55.531 69.8049 57.045 69.3193 58.5738 68.8449C59.9814 68.4077 61.3372 67.8082 62.7287 67.3177C65.067 66.4927 67.4201 65.7111 69.7571 64.8849C70.7903 64.5195 71.8322 64.1516 72.8159 63.6723C74.4695 62.8671 74.928 60.9943 73.9628 59.4262C73.2547 58.2754 72.565 57.1099 71.91 55.9282C70.4072 53.2192 68.897 50.5152 67.4547 47.7741C66.2386 45.4652 65.1362 43.0957 63.9424 40.7744C63.0933 39.1245 62.185 37.5056 61.2828 35.8842C61.0504 35.4655 61.1221 35.2029 61.5089 34.9428C62.6954 34.1463 63.8534 33.3065 65.0472 32.5225C68.0047 30.5765 70.773 28.3804 73.5364 26.1743C74.603 25.3234 75.7054 24.5182 76.7855 23.6834C77.6037 23.0504 78.4416 22.436 79.2153 21.7498C80.0594 21.0017 80.2089 19.9773 79.7294 18.9566C79.6565 18.8006 79.5947 18.6358 79.5539 18.4686C78.8878 15.694 77.946 13.0136 76.8795 10.3703C75.8327 7.77527 74.8774 5.14435 73.8615 2.53697C72.8567 -0.0419169 69.809 -0.835898 67.8094 1.00227C67.1902 1.57206 66.5377 2.05266 65.8382 2.50477C62.7275 4.51883 59.6638 6.60969 56.5247 8.57916C53.9331 10.2055 51.3155 11.7972 48.4606 12.9578C47.6845 13.2737 46.938 13.8113 46.3522 14.417C44.5738 16.2576 44.2982 18.8774 45.5761 21.2878C46.1273 22.327 46.8083 23.2969 47.4089 24.3114C49.3554 27.5975 51.2858 30.8936 53.2385 34.1761C53.4684 34.5613 53.3856 34.7508 53.0247 34.9626C52.2387 35.4234 51.4712 35.9151 50.7013 36.4019C49.1873 37.3582 47.6721 38.3144 46.1681 39.2843C45.8295 39.5023 45.649 39.4466 45.4871 39.0824C45.1547 38.3355 44.8062 37.5948 44.4403 36.8627C43.1489 34.2739 41.9118 31.6554 40.5338 29.1137C39.0964 26.4605 37.5689 23.8518 35.9944 21.2779C34.2061 18.3559 32.3622 15.4649 30.4639 12.6135C29.2589 10.8038 28.0688 9.00773 27.195 6.99986C26.4251 5.2323 24.9569 4.3962 23.6246 4.33674C20.111 4.30454 17.8778 7.12373 18.6601 9.97636C19.3102 12.3472 20.4682 14.49 21.9191 16.4793C23.5022 18.6507 25.12 20.8023 26.582 23.0554C28.138 25.4534 29.5061 27.9741 30.9978 30.4143C33.6388 34.7347 35.6471 39.3685 37.7605 43.9516C37.9496 44.3603 37.8779 44.5932 37.4812 44.8323C35.919 45.7712 34.347 46.6964 32.8368 47.7134C31.156 48.8443 29.5456 50.078 27.892 51.2497C23.9064 54.0751 19.8836 56.8497 15.9313 59.7209C12.9837 61.8626 10.1029 64.0984 7.23077 66.3416C5.63526 67.5877 4.10031 68.913 2.5703 70.2409C1.83743 70.8776 1.13546 71.5625 0.497746 72.2933C-0.156032 73.0415 -0.144908 74.1773 0.408764 75.0258C0.915471 75.8025 1.94001 76.1629 2.90275 75.9301L2.90399 75.9276Z" fill="#00946D"/>
</svg>
